<?xml version="1.0" standalone="no"?><svg xmlns="http://www.w3.org/2000/svg" viewBox="0 0 1440 320"><path fill="#0099ff" fill-opacity="1" d="M0,160L26.7,165.3C53.3,171,107,181,160,192C213.3,203,267,213,320,213.3C373.3,213,427,203,480,186.7C533.3,171,587,149,640,160C693.3,171,747,213,800,229.3C853.3,245,907,235,960,208C1013.3,181,1067,139,1120,112C1173.3,85,1227,75,1280,64C1333.3,53,1387,43,1413,37.3L1440,32L1440,320L1413.3,320C1386.7,320,1333,320,1280,320C1226.7,320,1173,320,1120,320C1066.7,320,1013,320,960,320C906.7,320,853,320,800,320C746.7,320,693,320,640,320C586.7,320,533,320,480,320C426.7,320,373,320,320,320C266.7,320,213,320,160,320C106.7,320,53,320,27,320L0,320Z"></path></svg>