<?xml version="1.0" standalone="no"?>
<!DOCTYPE svg PUBLIC "-//W3C//DTD SVG 20010904//EN"
 "http://www.w3.org/TR/2001/REC-SVG-20010904/DTD/svg10.dtd">
<svg version="1.0" xmlns="http://www.w3.org/2000/svg"
 width="512.000000pt" height="512.000000pt" viewBox="0 0 512.000000 512.000000"
 preserveAspectRatio="xMidYMid meet">
<metadata>
Created by potrace 1.14, written by Peter Selinger 2001-2017
</metadata>
<g transform="translate(0.000000,512.000000) scale(0.100000,-0.100000)"
fill="#000000" stroke="none">
<path d="M1995 4953 c-46 -10 -109 -50 -147 -93 -46 -52 -63 -82 -89 -158 -18
-52 -19 -117 -19 -1671 0 -1768 -3 -1672 58 -1784 79 -146 231 -209 365 -152
90 38 189 179 204 291 4 27 7 771 7 1654 l0 1605 -23 68 c-59 175 -204 273
-356 240z"/>
<path d="M3964 4149 c-101 -39 -178 -120 -204 -218 -8 -32 -11 -378 -11 -1310
0 -696 3 -1279 6 -1295 24 -121 150 -235 278 -252 136 -17 285 75 336 210 19
50 20 81 20 1336 l0 1285 -24 60 c-33 83 -114 158 -193 181 -77 23 -152 24
-208 3z"/>
<path d="M938 3570 c-97 -30 -177 -102 -198 -180 -15 -52 -13 -2058 1 -2115
25 -99 155 -193 275 -200 73 -4 156 10 203 35 52 26 111 87 133 137 19 42 19
79 19 1077 1 785 -2 1043 -12 1074 -21 73 -92 140 -179 171 -59 21 -178 22
-242 1z"/>
<path d="M2967 2974 c-83 -16 -164 -61 -197 -110 l-25 -37 0 -786 c1 -432 4
-798 8 -812 9 -36 58 -84 115 -113 163 -83 416 -38 493 88 18 30 19 61 19 824
0 854 2 820 -52 868 -39 36 -124 73 -180 79 -29 4 -66 8 -83 9 -16 2 -60 -2
-98 -10z"/>
<path d="M929 787 c-66 -9 -149 -47 -205 -92 -165 -136 -133 -370 65 -478 109
-60 2 -57 1761 -57 1766 0 1677 -3 1779 57 114 67 173 157 173 264 0 131 -105
247 -267 295 -56 17 -160 18 -1656 18 -878 1 -1620 -2 -1650 -7z"/>
</g>
</svg>
